<svg width="158" height="171" viewBox="0 0 158 171" fill="none" xmlns="http://www.w3.org/2000/svg">
<ellipse cx="9" cy="47.5" rx="9" ry="9.5" fill="#C4C4C4"/>
<ellipse cx="44" cy="47.5" rx="9" ry="9.5" fill="#C4C4C4"/>
<ellipse cx="149" cy="47.5" rx="9" ry="9.5" fill="#C4C4C4"/>
<ellipse cx="114" cy="47.5" rx="9" ry="9.5" fill="#C4C4C4"/>
<ellipse cx="79" cy="47.5" rx="9" ry="9.5" fill="#C4C4C4"/>
<ellipse cx="9" cy="9.5" rx="9" ry="9.5" fill="#C4C4C4"/>
<ellipse cx="44" cy="9.5" rx="9" ry="9.5" fill="#C4C4C4"/>
<ellipse cx="149" cy="9.5" rx="9" ry="9.5" fill="#C4C4C4"/>
<ellipse cx="114" cy="9.5" rx="9" ry="9.5" fill="#C4C4C4"/>
<ellipse cx="79" cy="9.5" rx="9" ry="9.5" fill="#C4C4C4"/>
<ellipse cx="9" cy="85.5" rx="9" ry="9.5" fill="#C4C4C4"/>
<ellipse cx="44" cy="85.5" rx="9" ry="9.5" fill="#C4C4C4"/>
<ellipse cx="149" cy="85.5" rx="9" ry="9.5" fill="#C4C4C4"/>
<ellipse cx="114" cy="85.5" rx="9" ry="9.5" fill="#C4C4C4"/>
<ellipse cx="79" cy="85.5" rx="9" ry="9.5" fill="#C4C4C4"/>
<ellipse cx="9" cy="123.5" rx="9" ry="9.5" fill="#C4C4C4"/>
<ellipse cx="44" cy="123.5" rx="9" ry="9.5" fill="#C4C4C4"/>
<ellipse cx="149" cy="123.5" rx="9" ry="9.5" fill="#C4C4C4"/>
<ellipse cx="114" cy="123.5" rx="9" ry="9.5" fill="#C4C4C4"/>
<ellipse cx="79" cy="123.5" rx="9" ry="9.5" fill="#C4C4C4"/>
<ellipse cx="9" cy="161.5" rx="9" ry="9.5" fill="#C4C4C4"/>
<ellipse cx="44" cy="161.5" rx="9" ry="9.5" fill="#C4C4C4"/>
<ellipse cx="149" cy="161.5" rx="9" ry="9.5" fill="#C4C4C4"/>
<ellipse cx="114" cy="161.5" rx="9" ry="9.5" fill="#C4C4C4"/>
<ellipse cx="79" cy="161.5" rx="9" ry="9.5" fill="#C4C4C4"/>
</svg>
